<mxfile host="Electron" modified="2022-10-09T02:44:53.286Z" agent="5.0 (Windows NT 10.0; Win64; x64) AppleWebKit/537.36 (KHTML, like Gecko) draw.io/20.3.0 Chrome/102.0.5005.167 Electron/19.0.17 Safari/537.36" etag="cFcyl9hANPsmH31NyzqS" compressed="false" version="20.4.0" type="device">
  <diagram id="0" name="Page-1">
    <mxGraphModel dx="768" dy="525" grid="1" gridSize="10" guides="1" tooltips="1" connect="1" arrows="1" fold="1" page="1" pageScale="1" pageWidth="827" pageHeight="1169" math="0" shadow="0">
      <root>
        <mxCell id="0" />
        <mxCell id="1" parent="0" />
        <mxCell id="LG7W-lJCwn09toY83LDz-1" value="收费模式" style="shape=delay;whiteSpace=wrap;html=1;" vertex="1" parent="1">
          <mxGeometry y="40" width="280" height="40" as="geometry" />
        </mxCell>
        <mxCell id="LG7W-lJCwn09toY83LDz-2" value="HTML文件生成服务" style="rounded=0;whiteSpace=wrap;html=1;" vertex="1" parent="1">
          <mxGeometry x="120" y="120" width="160" height="40" as="geometry" />
        </mxCell>
        <mxCell id="LG7W-lJCwn09toY83LDz-3" value="JSON文件生成服务" style="rounded=0;whiteSpace=wrap;html=1;" vertex="1" parent="1">
          <mxGeometry x="120" y="180" width="160" height="40" as="geometry" />
        </mxCell>
      </root>
    </mxGraphModel>
  </diagram>
</mxfile>
